<svg version="1.0" xmlns="http://www.w3.org/2000/svg" width="266.667" height="438.667" viewBox="0 0 200 329"><path d="M0 164.5V329h200V0H0v164.5zM95.2 16.7C97.7 19 99 24.3 99 32.8c0 8.7-1.9 13.6-6.1 15.8-2.2 1.1-2.9 2.2-2.9 4.3 0 2.3-.6 3-2.6 3.5-2.7.7-5-.3-2.6-1.1.6-.3 1.2-1.6 1.2-2.9 0-1.4-.4-2.2-1-1.9-.5.3-1 .1-1-.4 0-.6.5-1.1 1-1.1 1.5 0 1.3-31.7-.2-32.6-1.8-1.1 2.2-2.4 5.6-1.9 1.6.3 3.8 1.3 4.8 2.2zm17.2 9.9c1 .4 1.6 1.8 1.6 3.6 0 1.7-.4 2.7-1 2.3-.5-.3-1-1.5-1-2.6 0-1.4-.7-1.9-3-1.9h-3v9.9c0 9.3.1 9.9 2.3 10.6l2.2.8-2.2.4c-1.6.3-2.3 1.1-2.3 2.9 0 2 .5 2.4 3 2.4 2 0 3-.5 3-1.5 0-.8.5-1.5 1-1.5.6 0 1 1.1 1 2.5 0 2.4-.1 2.4-6.7 1.8-6.9-.6-8.8-1.2-6.5-2 1.7-.6 1.7-25.4 0-27.1-.9-.9 0-1.2 4.4-1.2 3.1 0 6.3.3 7.2.6zm-31.2 7.1c-.2 3.8-1.3 8.8-2.3 11.2-1.8 4.2-1.8 4.4 0 6.7 1 1.3 2.1 2 2.5 1.7.3-.3.6-.1.6.5s-1.2 2-2.7 3.2l-2.8 2.2-.5-3.3c-.7-4.9-4-5.3-4-.6 0 2.9-.4 3.6-2.6 4.1-2.7.7-5-.3-2.6-1.1.6-.3 1.2-1.6 1.2-2.9 0-1.3-.6-2.4-1.2-2.5-1 0-1-.2 0-.6.8-.3 1.2-3.5 1.2-10.9 0-6.8-.4-10.3-1-9.9-.5.3-1 .2-1-.3 0-1.1 2.4-2.2 4.6-2.2 1.1 0 1.4 2.1 1.4 10.7 0 9.5.2 10.6 1.5 9.2 1.7-1.7 3.5-10.2 3.5-17 0-4.4.2-4.9 2.3-4.9 2.2 0 2.3.3 1.9 6.7zm43.1-4.5c5.4 2.8 7.8 15.7 3.7 19.8-1.1 1.1-2.9 2-4 2-1.6 0-2 .7-2 3.5 0 2.4-.5 3.5-1.4 3.5-4 0-4.1-.6-3.6-14.3.3-7.2.2-13.6-.2-14.2-1.6-1.9-.7-2.6 2.5-2 1.7.4 4 1.2 5 1.7zm16.6 5.2c7 6.2 6.8 19.2-.4 21-2 .5-2.5 1.3-2.5 3.6 0 3.4.1 3.4-3.6 2-2.1-.8-2.4-1.4-1.6-2.2 1.5-1.5 1.7-25.4.2-26.3-.5-.3-1-1-1-1.5 0-1.4 6.2 1 8.9 3.4zM65 33c0 2.2-1.6 2.7-2.3.7-.7-2-4.6 2.1-5.7 6.2-2.7 9.9.5 22.4 5.1 19.5.5-.3.9-.1.9.5 0 1.6-3.7 2.3-5.9 1.1-3.7-1.9-5.1-5.2-5.1-11.5 0-7 2.5-13.2 6.5-16.3C62 30.4 65 30.3 65 33zm89.5 5.7c4.7 2.3 5.5 3.1 5.5 5.6 0 1.6-.4 2.6-1 2.2-.5-.3-1-1.5-1-2.5 0-1.7-2.6-4-4.4-4-.3 0-.6 4.5-.6 10 0 8 .3 10.2 1.5 10.6.8.4 1.5 1 1.5 1.5 0 .4-.7.6-1.5.3-2.8-1.1-1.8 4.1 1 5.4 1.5.7 2.5.8 2.5.2 0-.6.5-1 1-1 .6 0 1 .9 1 2.1 0 1.1-.4 1.9-.8 1.7-.4-.2-3.3-1.4-6.5-2.7-5.2-2.2-7.3-4.1-4.7-4.1 1.5 0 1.3-25.3-.2-26.8-2-2 .7-1.4 6.7 1.5zm-106 .5c.2.7.5 7 .7 14 .3 12.3.2 12.7-1.9 13.7s-2.3.8-2.3-2c0-2.4-.4-3-1.7-2.7-1.3.2-1.9 1.5-2.1 4.6-.3 3.4-.7 4.2-1.8 3.8-.9-.3-2.3-.6-3.2-.6-1.2 0-1.3-.3-.4-1.2.8-.8 1.2-4.9 1.2-12 0-11.4 1.1-15.6 4.7-17.7 2.5-1.4 6.3-1.3 6.8.1zM20.7 44c1.6 3 .9 8.7-1.7 14.7-1.5 3.4-1.6 4.3-.5 4.3 2.4 0 3.7 6.3 2.6 12.5-1.1 6.1-3.6 10.3-7.9 13.4l-2.7 1.9.3-10.4c.3-7.9 0-10.4-.9-10.4-1 0-1-.3-.1-1.2 1.6-1.6 1.7-20.5 0-21-1.8-.6 5.5-6.9 7.7-6.6 1.1.2 2.5 1.4 3.2 2.8zm149.8 5.9c3.7 5.2 4.9 15.9 2.1 19-1 1.1-1.3 2.2-.8 2.5.5.3 1.3 1.8 1.7 3.3.3 1.5 1.2 3.1 1.8 3.5 1.9 1.1.1 1.9-2.7 1.2-2-.5-2.6-1.2-2.6-3.4 0-3.4-.9-6-2.1-6-.5 0-.9 1.1-.9 2.5s-.4 2.5-.9 2.5c-1.4 0-5.7-3.9-4.3-4 1.5 0 1.6-3.2 0-4.8-.9-.9-.9-1.2 0-1.2 1.5 0 1.7-19.6.2-20.5-.5-.3-1-1.1-1-1.7 0-1.9 6.5 3 9.5 7.1zM28.9 75c1.2 0 3.8-3.3 4.4-5.5.3-1.4.5-1.1.5 1 .1 2.5-.7 3.5-5.1 6.5l-5.2 3.6.2-15.4c.1-13.6.3-15.5 2-16.7 1.7-1.3 1.8-.7 2.1 12.6.1 7.6.6 13.9 1.1 13.9zm155.2-16.2c2.5 2.3 3 3.3 2.7 6.2l-.4 3.5-.8-3c-1-3.9-2-5.8-3.4-6.3-2-.6-1.4 3.8 1.9 13.3 3.7 10.9 4.2 15.8 1.6 16.3-1.9.4-7.7-4.9-7.7-7 0-.7 1-.1 2.1 1.4 1.1 1.6 2.5 2.8 3 2.8 1.7 0 .9-4.4-2.8-15.5-2-6.2-3.3-11.9-3-12.8.9-2.5 3.2-2.1 6.8 1.1zM129 73.6c7.3 3.3 9.6 5.7 12 12.1 2.2 5.9 2.6 12.9.9 18.3-.5 1.9-1.3 5.7-1.6 8.4-.3 2.6-1.6 6.7-2.9 8.9-2.3 4.2-2.4 4.7-.9 16.5.2 2 0 3-.6 2.6-.6-.3-.4.7.5 2.3.8 1.7 2 5.1 2.7 7.6.6 2.6 1.7 5.2 2.5 5.8.8.6 1.4 2.3 1.3 3.8-.1 2.4-.1 2.4-1-.7-.5-1.7-1.6-3.2-2.3-3.2-1.8 0-3.6 4.7-3.4 8.5.1 1.6-.1 3.7-.4 4.5-.2.8-.3 1.2-.1.7 1.3-2.1 2.5-.3 2.1 3.2-.3 3.3-.1 3.8 1 2.8.9-.7 1.2-2.3.9-4.2-.3-1.7.1-3.8.8-4.8 1-1.4 1.1-.8.7 3.6-.2 2.8-1.1 5.9-1.8 6.8-.8.8-2.2 4.6-3.1 8.4l-1.7 6.8-1.3-3.4-1.3-3.4.5 4c1.6 11.3 1.7 12 .6 10.5-1-1.3-1.1-1.3-1.1 0 0 .8.4 2.9.9 4.6 1.6 5.7-1.8 17.7-4 14.2-.6-.9-.9-.3-.9 1.7-.1 2.9-.1 2.9-1.1.6-1.5-3.7-2-2-.7 2.3l1.2 3.8-5.4 5.1c-5.3 4.9-5.5 5-6.1 2.6-.6-2.1-.7-2.1-.8.8-.1 1.8-.5 3.3-.9 3.3-.5 0-2.2 2-4 4.5-3.6 5.2-6.8 6.3-5.1 1.8l1-2.8-3.2 3c-1.8 1.6-2.8 2.3-2.4 1.5.6-1.2.5-1.3-.6-.2-1.9 1.8-2.9 1.5-3-1.1v-2.2l-.9 2.3c-1.1 2.6-2.3 2.8-4.4.6-.9-.8-2-1.2-2.6-.9-.6.3-1.4-.4-1.9-1.7-.6-1.3-1-1.6-1.1-.8-.1 2.7-2-1.2-2-4.2 0-1.5-.5-3-1-3.3-.7-.4-.8.3-.4 2 .5 2.1.3 2.6-.6 2.3-1.6-.5-2.5-3.2-3.6-10.3l-.8-5-.7 4.5c-.8 4.9-.4-6 .6-15.5.4-4.6.3-4.4-1 1.5-.7 3.6-1.4 9.4-1.4 12.9l-.1 6.4-3.5-3.4c-4.8-4.7-8.9-14.1-8.9-20.4.1-2.8-.4-5.3-1-5.7-.6-.4-1.2-3.6-1.3-7-.1-3.5-.4-7-.6-7.8-.3-.8-1.2-4.9-1.9-9-.8-4.1-1.8-8.4-2.2-9.5-.5-1.4-.3-1.4.5.2 1.5 2.8 2.5 2.9 3.2.3.3-1.1-.5-3.2-1.9-5.1l-2.4-3.3-.1 3c0 2.5-.2 2.6-.9.9-1.4-3.2-1.1-9.2.4-10.8 1.8-1.7 3.4-12.3 2.5-15.7-.4-1.4-.7-4.1-.8-6-.1-2.4-1-4.4-3.3-6.7-2.4-2.5-3.1-4.1-3-6.7.1-3.5-.7-5.7-4.2-10.9-2.5-3.7-2.6-11.5-.3-13.2 1-.7 2.1-3.4 2.6-6.1.5-2.8 1.8-5.5 3-6.5 1.1-.9 2.8-3.5 3.7-5.8 1.6-3.9 4.4-5.7 4.4-2.6 0 .8 1.6 2.7 3.5 4.2 3.2 2.5 4 2.7 10.7 2.5 6.5-.3 8.3-.9 15.8-5 16.1-8.7 28-10.1 40-4.6zm12 86.4c0 1.3-.7 2-2 2-2.3 0-2.6-1-.8-2.8 1.8-1.8 2.8-1.5 2.8.8zM18.7 260c6.2 2.2 8.9 13 4.7 18.7-1.9 2.5-2 3.1-.7 4.9 3 4.5-.6 6.7-9.2 5.5-3.6-.6-4.5-1-3.2-1.5.9-.5 1.7-1.6 1.7-2.6s-.8-2.1-1.7-2.5c-1.7-.6-1.7-.7 0-1.6 2.4-1.4 2.6-19.9.1-19.9-.8 0-1.2-.5-.9-1 .8-1.3 5.4-1.3 9.2 0zm20.6.1c1.2.7 2.5 1.7 2.9 2.3.4.6.8 7.9.8 16.3 0 11.2.3 15.2 1.3 15.6.6.2.9.7.6 1.1-.3.3-2 .1-3.7-.5-2.9-1-3.2-1.5-3.2-5 0-3.2-.3-3.9-2-3.9s-2 .7-2 4v4.1l-3.5-2.8c-3.6-2.9-4.6-4.7-2-3.7 1.3.5 1.5-1.3 1.5-12.9v-13.5l2.8-1c3.6-1.4 4-1.4 6.5-.1zm15.7.2c6.3 3.1 9.1 17.2 5 25.1-1.7 3.5-1.8 4.1-.5 6 .8 1.1 1.5 3.1 1.5 4.3 0 1.4.6 2.3 1.5 2.3.8 0 1.5.7 1.5 1.5 0 1-1.1 1.5-3.5 1.5-3.3 0-3.5-.2-3.5-3.4 0-1.9-.9-4.4-2-5.7l-1.9-2.4-.1 4.7v4.6l-3.5-1.1c-3.2-1-4.8-2.7-2.5-2.7.6 0 1-1.4 1-3 0-1.7-.4-3-1-3-.5 0-1-.7-1-1.6 0-.8.5-1.2 1-.9.6.4 1-3.8 1-11.9 0-7.7-.4-12.6-1-12.6-.5 0-1-.7-1-1.5 0-1.9 5.4-2 9-.2zm18.8-.2c2.2.8 3.7 2.4 5.3 5.7 3.1 6.4 3.2 18.9.2 24.7-1.9 3.7-2 4.1-.5 7.2 1.2 2.6 1.3 3.8.4 5.8-1.3 2.8-4.4 3.2-10.1 1.1-3.7-1.3-5.4-3.6-2.7-3.6 1.2 0 1.6-1 1.6-3.5s-.4-3.5-1.6-3.5c-.9 0-1.4-.6-1.1-1.3.2-.6 1-1.1 1.6-1 .8.2 1.1-4.1 1.1-14.6 0-12.3-.3-15-1.5-15.5-.8-.3-1.5-1-1.5-1.6 0-1.3 4.9-1.3 8.8.1zm24.2 4.4c0 3-.4 5.5-1 5.5-.5 0-1-1.8-1-4 0-3.9-.1-4-3.5-4H89v17.1c0 16.2.1 17.1 2 17.6 2.5.7 2.7 3.5.3 3.1-1.5-.2-1.8.4-1.8 3.7 0 3.6.2 4 3.3 4.6 3 .6 3.2.5 3.2-2.2 0-1.6.5-2.9 1-2.9.6 0 1 2.1 1 4.6 0 3.8-.3 4.5-1.7 4.1-1-.3-3.6-.8-5.8-1.2-6.1-.9-7.5-1.5-7.5-3.1 0-.8.5-1.4 1-1.4 1.5 0 1.3-43.7-.2-44.2-.6-.2-.8-1-.4-1.6.4-.7 3.4-1.2 7.7-1.2H98v5.5zm12-3c5.6 5.1 7.4 22.6 3.2 31.9l-2.2 4.8 2 2.5c1.1 1.4 2 3.6 2 4.9 0 1.7.4 2.2 1.5 1.8 2.9-1.2 1.4 1.6-2.2 4.1l-3.8 2.5-.5-6.2c-.7-8.2-3-9.3-3-1.4 0 6.4-1.3 7.7-5.8 5.6-2.5-1.1-2.5-1.3-.9-2.4 2.3-1.7 2.3-7.4 0-9.2-1.7-1.3-1.7-1.5 0-2.5 1.5-.9 1.7-2.9 1.7-17.8 0-13.7-.3-17.1-1.5-18.1-.8-.7-1.2-1.7-.9-2.2.9-1.5 8.2-.3 10.4 1.7zm22 3.5c0 3.3-.4 6-1 6-.5 0-1-2-1-4.5 0-3.8-.3-4.5-2-4.5-2.2 0-4 2.8-4 6.4 0 1.4 2 7.8 4.5 14.2 6.1 15.6 5.9 22.1-.5 27.1-3.4 2.7-10-.1-7.2-2.9.9-.9 1.2-.9 1.2.1 0 2.3 4.4.7 6-2.2 1.4-2.5 1.3-3.3-1.9-12-6.8-18.9-7.4-21.2-6.7-25.1 1-5.2 4.6-8.6 9.1-8.6h3.5v6zm9.8 11.2c.2 15.9.4 16.8 2.2 16.8 1.8 0 2-.9 2.2-16.8l.3-16.7 2.4-.3c2.6-.4 5.5 1.7 3.4 2.5-1 .4-1.3 5-1.3 18.4 0 11.8.3 17.8 1 17.4 2.5-1.5.7 2.4-2.5 5.5l-3.5 3.4v-5.7c0-3.1-.3-5.7-.7-5.7-2.2.1-3.2 2-3.5 6.4-.3 4.4-.6 5-3.1 5.9-3.2 1-4.7.3-2.9-1.5 1.7-1.7 1.7-43.5 0-44-2.2-.8.4-2.9 3-2.6l2.7.3.3 16.7zm26.2-11.6c1.9 3.8 2.5 16.8 1.1 23.4-2.2 10.1-8 14.2-11.8 8.3-2.2-3.4-3.1-20.3-1.4-27.9 1.5-6.7 5.2-10.2 8.5-8.1 1.2.8 2.8 2.7 3.6 4.3zm12.3-4.5c3.1.8 4.2 1.8 5.8 5.2 1 2.3 1.9 5.3 1.9 6.7 0 4.2-3.7 10.9-7 12.8-2.5 1.4-3 2.3-3 5.4 0 3.3-.3 3.7-3.1 4.3-3.3.7-5.2-.1-2.5-1.1 1.4-.5 1.6-2.7 1.6-16.5 0-13.7-.2-15.9-1.6-15.9-.8 0-1.2-.5-.9-1 .8-1.3 4-1.3 8.8.1z"/><path d="M90.1 32L90 48.5l2-2.5c1.7-2.2 2-4.1 2-14.1 0-10.2-.3-12-2-14l-1.9-2.4V32zm31.9 7.5c0 5.2.4 9.5.8 9.5 1.4 0 3.2-4.8 3.2-8.6 0-3.4-2.3-10.4-3.4-10.4-.4 0-.6 4.3-.6 9.5zm16 3.8c0 9.9 1.1 12.3 3.1 6.9 1.4-3.6.6-11.3-1.4-14.3-1.6-2.3-1.7-2-1.7 7.4zm-95.8-2.1c-1.4 1.4-1.7 19.8-.4 19.8 2.3 0 3.2-3 3.2-11.1 0-8.8-.7-10.8-2.8-8.7zM14 53.5c0 5.2.2 9.5.6 9.5 1.2 0 3.4-7.2 3.4-11.4 0-5.4-.8-7.6-2.6-7.6-1.1 0-1.4 2-1.4 9.5zm0 22c0 5.2.2 9.5.6 9.5 1.3 0 3.4-7.3 3.4-11.8 0-4.4-1.2-7.2-3.2-7.2-.4 0-.8 4.3-.8 9.5zm153-18.2c0 7.2.3 9.8 1.2 9.5 3-1 3.2-11.3.2-16.8-1.2-2.2-1.3-1.5-1.4 7.3zm-38 23.2c1.9 2.2 3.9 4.4 4.4 5 .5.5.4.1-.2-1-.6-1.1-2.5-3.3-4.4-5l-3.3-3 3.5 4zM139.7 93c.3 3 .7 5.7.9 5.9.8.9.2-7.5-.6-9.4-.5-1.2-.6.1-.3 3.5zm-20.2-2c1 1.1 2 2 2.3 2 .3 0-.3-.9-1.3-2s-2-2-2.3-2c-.3 0 .3.9 1.3 2zm-17.6 2.5c-1.4.8-4.4 3.9-6.7 6.9-3.4 4.4-4.6 5.4-6.5 5-1.6-.2-3.9.7-6.7 2.7-2.3 1.7-4 3.2-3.8 3.4 1 1 8.1-2.1 8.6-3.7.2-1 .8-1.5 1.3-1.2.5.3.6 1 .3 1.6-.8 1.3.5.6 5.1-2.6 1.7-1.2 3.2-1.9 3.5-1.8.2.2.6-.2.9-.9.2-.8-.1-.9-1-.3-.8.4-.2-.8 1.2-2.7 1.4-1.8 4.3-4.2 6.3-5.3 3.6-1.8 4-1.8 7.3-.2 2 1 4 2.9 4.8 4.9.9 2 1.4 2.5 1.5 1.3 0-1-1.5-3.3-3.4-5.2-3.8-3.8-8.1-4.4-12.7-1.9zm-33.3 2.9c-5.1 1.4-10.4 1.5-14.6.2l-2.5-.8 2.5 1.9c3.3 2.4 10.9 2.2 17.5-.5 5.7-2.4 4.4-2.7-2.9-.8zm-15.2 5c1.1.9 2.4 1.6 3 1.6 1.2 0 .7-.5-2.4-1.9-2.4-1.1-2.4-1.1-.6.3z"/><path d="M97.8 104.4c-1.5 1.3-2.4 2.7-2 3.2.4.4.2.5-.3.1-.6-.3-3.8.7-7 2.3-3.3 1.6-7.5 3-9.3 3-1.8 0-3.8.5-4.5 1.1-.7.5-3.4 2.5-6.2 4.3-2.7 1.8-4.9 3.7-4.8 4.3.5 2.8.4 11-.2 12.5-1.1 2.6 3.1 1.1 5.6-2 1.8-2.4 3-2.7 11.2-3.4 9.5-.7 11.2-.2 10.1 3.3-.5 1.9 2.1 2.7 7.4 2.4 1.7-.1 4.1-.3 5.1-.4 1.3-.1 1.8-.7 1.4-1.9-.8-3.1 1.6-4.1 7.2-3.1 2.8.6 6.3.7 7.9.4 1.8-.3 3.8.1 5.2 1 2 1.3 2.5 1.3 4.5-.4 1.7-1.3 2.2-2.7 2.1-5.6-.2-5.9-2.2-9.1-7.4-12.2-3.6-2.1-4.7-3.3-4.3-4.6 1.4-4.8 1.5-5.9.1-3-1.6 3.5-2 3.5-8.6-.9-1.4-.9-4.3-1.9-6.5-2.2-3.3-.5-4.5-.2-6.7 1.8zm-.1 25.8c-.3.8-.6.5-.6-.6-.1-1.1.2-1.7.5-1.3.3.3.4 1.2.1 1.9zm-33.9-14.5c.7.3 1.6.2 1.9-.1.4-.3-.2-.6-1.3-.5-1.1 0-1.4.3-.6.6zm-5.5 1c.9.2 2.3.2 3 0 .6-.3-.1-.5-1.8-.5-1.6 0-2.2.2-1.2.5zm75.8 14.9c0 1.1.3 1.4.6.6.3-.7.2-1.6-.1-1.9-.3-.4-.6.2-.5 1.3z"/><path d="M69.8 137.2c-2.6.9-2.8 1.4-2.8 6.7 0 7.8 2.3 10 10.3 10.2 8.4.2 13.1-3.6 14.4-11.6.9-5.4-1.1-6.5-11.1-6.4-4.5 0-9.3.5-10.8 1.1zm35.2.1c-3.3 1.7-3.5 3.7-1.2 9.1 2.6 5.8 5.9 7.9 12.6 8 7.3.1 10.3-2 11.1-7.8.9-5.6 0-8.5-3.2-9.7-3.5-1.3-16.4-1.1-19.3.4z"/><path d="M95 142.6c-.6 1.4-1 2.9-1 3.4 0 2.2-4.3 10.5-6 11.7-2.2 1.6-2.7 5.9-.7 6.6.7.4.8.6.1.6-2.3.2-3.8-2.8-2.6-5.2 2.3-4.8 2.3-5.9.2-5.3-1.1.3-2.9.9-4 1.2-1.1.3-4.5 0-7.6-.6-4.9-1-5.7-1.6-7-4.6-.8-1.8-1.4-4.7-1.4-6.4 0-3.7-1.1-3.9-2.7-.3-1 2.2-.9 4.6.2 11.6.8 4.8 1.6 9.1 1.9 9.5.3.5.7 2 1 3.5.4 2.4.1 2.7-2.1 2.7-1.5 0-2.4.3-2.1.6.8.7 15.9-1.5 17.3-2.6 2.4-1.8 15.5-3.4 15.5-1.8 0 .6.3.8.7.5.3-.4 1.2-.2 1.9.3.8.8 1.6.6 2.7-.4 1.7-1.8 11.4-1.4 15 .6 1.2.7 4.5 1.5 7.2 1.9 2.8.4 6.1 1 7.5 1.4 1.4.5 2.2.4 1.8 0-.4-.5-.3-1.3.2-2 .5-.6 1.5-4.7 2.1-9.1 1.2-8.8 1.5-9.7 3.2-8.7 1 .6-1.5-3.9-4.9-9.1-1.1-1.7-1.3-1.5-1.9 2-1.4 9.2-6.4 12.4-16.5 10.6-3-.5-5.7-.8-6-.5-.2.2.4 1.9 1.4 3.8 1.6 2.8 1.7 3.7.6 5-.7.8-1.7 1.5-2.2 1.5-.5 0-.2-.7.6-1.6 1.8-1.8 1.4-2.9-2.5-6.1-1.9-1.6-3-3.9-3.9-8.5-1.8-9-4.1-11.3-6-6.2zm-1.5 18.8c1.6 1.2 1.4 1.3-2.1 1.1-4.7-.3-4.7-.3-3.9-1.5.9-1.4 3.8-1.2 6 .4zm11.9-.5c.8 1.2-2 2.2-3.9 1.5-1.9-.8-.9-2.4 1.5-2.4 1 0 2.1.4 2.4.9zm-50.7-3.2c-.4.3-.6 1.8-.6 3.2.1 1.7.3 2 .6.8.2-.9.8-1.7 1.3-1.7s1.4.8 1.9 1.7c1 1.6 1 1.6 1.1-.3 0-3-2.7-5.4-4.3-3.7z"/><path d="M107 167.4c0 .2.8 1 1.8 1.7 1.5 1.3 1.6 1.2.3-.4s-2.1-2.1-2.1-1.3zm-20.1 2.3c-1.3 1.6-1.2 1.7.4.4.9-.7 1.7-1.5 1.7-1.7 0-.8-.8-.3-2.1 1.3zm18.1-1.3c0 .2.8 1 1.8 1.7 1.5 1.3 1.6 1.2.3-.4s-2.1-2.1-2.1-1.3zm20.7 6.7c.7.7 1.5 1 1.8.7.3-.3-.2-.9-1.2-1.2-1.4-.6-1.5-.5-.6.5zM64 176.4c.4.4 1.6.4 2.6-.2 1.6-.9 1.4-1-.8-.9-1.5.1-2.3.6-1.8 1.1zm42.8 1.3c.7.3 1.6.2 1.9-.1.4-.3-.2-.6-1.3-.5-1.1 0-1.4.3-.6.6zm-21.3 6.9c2.6 1.9 19.1 1.8 22.5-.1 2.3-1.3 1.2-1.4-10.9-1.3-11.6.1-13.2.3-11.6 1.4zm-10.9 1.9c-.9 2.6-.7 3.2.5 1.2.6-1 .9-2.1.6-2.3-.2-.3-.7.2-1.1 1.1zm35.5 1c.1 1.9 1.8 5.1 1.8 3.5 0-.8-.4-2.2-.9-3-.5-.8-.9-1.1-.9-.5zM91 195.7c0 1.8.2 3.3.4 3.3.9 0 1.3-3.9.5-5.1-.6-1-.9-.4-.9 1.8zm33-.2c0 .6 1 2.6 2.2 4.5 1.2 1.9 2.9 5.5 3.9 8s1.8 3.7 1.9 2.7c0-1-.6-3.3-1.4-5.2-1.7-3.9-6.6-11.4-6.6-10zm-18.5 3.9c-.9 1.4-1.9 4.5-2.1 6.8-.3 3.6-.2 3.8.5 1.3.4-1.7 1.5-4.5 2.5-6.3 2.1-4.1 1.4-5.4-.9-1.8zm-38.2 17.1c0 3.3.2 4.5.4 2.7.2-1.8.2-4.5 0-6s-.4 0-.4 3.3zm15.9 3.5c0 1.4.2 1.9.5 1.2.2-.6.2-1.8 0-2.5-.3-.6-.5-.1-.5 1.3zm-1.6 4.5c-.9 2.6-.7 3.2.5 1.2.6-1 .9-2.1.6-2.3-.2-.3-.7.2-1.1 1.1zm8.2 7.5c.2 5.2.6 9.7.8 9.9.7.8.2-14.4-.6-16.9-.4-1.4-.5 1.8-.2 7zm5.5.5c0 2.7.2 3.8.4 2.2.2-1.5.2-3.7 0-5-.2-1.2-.4 0-.4 2.8zm6.3-1.2c.3 1 .9 1.5 1.2 1.2.3-.3 0-1.1-.7-1.8-1-.9-1.1-.8-.5.6zM16 271.7v9.7l2.1-2.1c2.9-2.8 3.6-10 1.5-14.1-2.8-5.3-3.6-3.8-3.6 6.5zm0 13.8c0 2 .4 2.6 1.8 2.3.9-.2 1.7-1.2 1.7-2.3 0-1.1-.8-2.1-1.7-2.3-1.4-.3-1.8.3-1.8 2.3zm18.7-23.9c-.4.4-.7 5.6-.7 11.6 0 10.2.1 10.8 2 10.8 2 0 2.1-.5 1.8-11.2-.3-10.3-1.1-13.2-3.1-11.2zM53 274.5c0 12.4.9 15.5 3 9.9 2.1-5.5.3-22.4-2.4-22.4-.4 0-.6 5.6-.6 12.5zm19 3c0 14.4.6 16.9 3.2 12.2 2.8-5 .9-26.7-2.3-26.7-.5 0-.9 6.5-.9 14.5zm.7 18.1c-.4.4-.7 2.3-.7 4.1 0 2.7.4 3.4 1.8 3.1.9-.2 1.8-1.2 2-2.3.3-2.3-2-6-3.1-4.9zm34.3-14.9c.1 16.1.1 16.7 1.7 13.8 2.2-3.9 2.9-17.2 1.4-24.1-2.3-9.9-3.1-7-3.1 10.3zm53.6-15.6c-1 5-.7 26.5.4 29.4 2.1 5.6 3 1.1 3-15.6 0-13.7-.3-16.9-1.4-16.9-.7 0-1.6 1.4-2 3.1zm17.4 7.4c0 11.2 1 13.1 3.6 7 1.8-4.5 1.8-10.8-.1-14.5-2.7-5.2-3.5-3.5-3.5 7.5z"/></svg>